<svg preserveAspectRatio="none" overflow="visible" style="display: block;" width="40" height="40" viewBox="0 0 40 40" fill="none" xmlns="http://www.w3.org/2000/svg">
<g id="glyph">
<path id="Vector" d="M10.3333 13.3333H33.3333L30.3333 24.1667C30.1837 24.709 29.8555 25.1849 29.4018 25.5176C28.9482 25.8503 28.3955 26.0203 27.8333 26H15.3333C14.7485 26.0118 14.178 25.8181 13.7212 25.4527C13.2644 25.0872 12.9502 24.5732 12.8333 24L10.3333 13.3333Z" fill="#5700BB" fill-opacity="0.16" stroke="#5700BB" stroke-width="2.91667" stroke-linecap="round" stroke-linejoin="round"/>
<path id="Vector_2" d="M5 6.66667H9.16667L12.8333 24" stroke="#5700BB" stroke-width="2.91667" stroke-linecap="round" stroke-linejoin="round"/>
<path id="Vector_3" d="M15.8333 34.8333C17.122 34.8333 18.1667 33.7887 18.1667 32.5C18.1667 31.2113 17.122 30.1667 15.8333 30.1667C14.5447 30.1667 13.5 31.2113 13.5 32.5C13.5 33.7887 14.5447 34.8333 15.8333 34.8333Z" fill="#F1ECF6" stroke="#5700BB" stroke-width="2.91667" stroke-linecap="round" stroke-linejoin="round"/>
<path id="Vector_4" d="M28.3333 34.8333C29.622 34.8333 30.6667 33.7887 30.6667 32.5C30.6667 31.2113 29.622 30.1667 28.3333 30.1667C27.0447 30.1667 26 31.2113 26 32.5C26 33.7887 27.0447 34.8333 28.3333 34.8333Z" fill="#F1ECF6" stroke="#5700BB" stroke-width="2.91667" stroke-linecap="round" stroke-linejoin="round"/>
</g>
</svg>
