<svg preserveAspectRatio="none" overflow="visible" style="display: block;" width="34" height="34" viewBox="0 0 34 34" fill="none" xmlns="http://www.w3.org/2000/svg">
<g id="dislexia">
<path id="Vector" d="M17 9.91667V29.75" stroke="#F5A623" stroke-width="2.47917" stroke-linecap="round" stroke-linejoin="round"/>
<path id="Vector_2" d="M4.25 25.5C3.87428 25.5 3.51394 25.3507 3.24826 25.0851C2.98259 24.8194 2.83333 24.4591 2.83333 24.0833V5.66667C2.83333 5.29094 2.98259 4.93061 3.24826 4.66493C3.51394 4.39926 3.87428 4.25 4.25 4.25H11.3333C12.8362 4.25 14.2776 4.84702 15.3403 5.90973C16.403 6.97243 17 8.41377 17 9.91667C17 8.41377 17.597 6.97243 18.6597 5.90973C19.7224 4.84702 21.1638 4.25 22.6667 4.25H29.75C30.1257 4.25 30.4861 4.39926 30.7517 4.66493C31.0174 4.93061 31.1667 5.29094 31.1667 5.66667V24.0833C31.1667 24.4591 31.0174 24.8194 30.7517 25.0851C30.4861 25.3507 30.1257 25.5 29.75 25.5H21.25C20.1228 25.5 19.0418 25.9478 18.2448 26.7448C17.4478 27.5418 17 28.6228 17 29.75C17 28.6228 16.5522 27.5418 15.7552 26.7448C14.9582 25.9478 13.8772 25.5 12.75 25.5H4.25Z" stroke="#5700BB" stroke-width="2.47917" stroke-linecap="round" stroke-linejoin="round"/>
</g>
</svg>
