<svg preserveAspectRatio="none" overflow="visible" style="display: block;" width="40" height="40" viewBox="0 0 40 40" fill="none" xmlns="http://www.w3.org/2000/svg">
<g id="glyph">
<path id="Vector" d="M20 14C17.6667 12 12.6667 12 10.6667 15.6667C8.33333 20 10 26 13.3333 29.6667C15 31.5 17.1667 31.6667 18.6667 30.8333C19.5 30.3333 20.5 30.3333 21.3333 30.8333C22.8333 31.6667 25 31.5 26.6667 29.6667C30 26 31.6667 20 29.3333 15.6667C27.3333 12 22.3333 12 20 14Z" fill="#5700BB" fill-opacity="0.16" stroke="#5700BB" stroke-width="2.91667" stroke-linecap="round" stroke-linejoin="round"/>
<path id="Vector_2" d="M20 14V9.33333" stroke="#5700BB" stroke-width="2.91667" stroke-linecap="round" stroke-linejoin="round"/>
<path id="Vector_3" d="M20 9.33333C20.3333 6.66667 22.3333 5.33333 25 5.33333C24.8333 8 23 9.5 20 9.33333Z" fill="#0D8302" fill-opacity="0.16" stroke="#0D8302" stroke-width="2.91667" stroke-linecap="round" stroke-linejoin="round"/>
</g>
</svg>
